<svg xmlns="http://www.w3.org/2000/svg" width="960" height="237" viewBox="0 0 960 237" role="img" aria-labelledby="title desc">
<title id="title">Start with the driver; add only what you need</title><desc id="desc">Install the base driver, run the read example, optionally record data, then add the GUI extra for a dashboard.</desc>
<defs><marker id="arrow" markerWidth="8" markerHeight="8" refX="7" refY="4" orient="auto"><path d="M0 0 L8 4 L0 8Z" fill="#536c79"/></marker></defs>
<rect width="960" height="237" rx="14" fill="#f5f8fa"/>
<g font-family="Segoe UI,Arial,sans-serif" fill="#18313d">
<text x="30" y="36" font-size="22" font-weight="600">Start with the driver; add only what you need</text>
<path d="M225 125H262" fill="none" stroke="#536c79" stroke-width="2" marker-end="url(#arrow)"/><path d="M465 125H502" fill="none" stroke="#536c79" stroke-width="2" marker-end="url(#arrow)"/><path d="M705 125H742" fill="none" stroke="#536c79" stroke-width="2" marker-end="url(#arrow)"/><rect x="25" y="90" width="200" height="72" rx="8" fill="#e5f4f2" stroke="#087f8c" stroke-width="1.5"/><text x="125" y="119" text-anchor="middle" font-size="20">1 · Install</text><text x="125" y="144" text-anchor="middle" font-size="15" fill="#536c79">python -m pip install .</text><rect x="265" y="90" width="200" height="72" rx="8" fill="#fff" stroke="#c6d4dc" stroke-width="1.5"/><text x="365" y="119" text-anchor="middle" font-size="20">2 · Read</text><text x="365" y="144" text-anchor="middle" font-size="15" fill="#536c79">Run example 01</text><rect x="505" y="90" width="200" height="72" rx="8" fill="#fff" stroke="#c6d4dc" stroke-width="1.5"/><text x="605" y="119" text-anchor="middle" font-size="20">3 · Record</text><text x="605" y="144" text-anchor="middle" font-size="15" fill="#536c79">Run example 03</text><rect x="745" y="90" width="190" height="72" rx="8" fill="#fff" stroke="#c6d4dc" stroke-width="1.5"/><text x="840" y="119" text-anchor="middle" font-size="20">4 · Optional GUI</text><text x="840" y="144" text-anchor="middle" font-size="15" fill="#536c79">Install the gui extra</text><text x="30" y="211" font-size="16" fill="#536c79">Simulator: no hardware required. Expected first reading: 20.00 Celsius.</text>
</g></svg>
